<mxfile host="app.diagrams.net" modified="2024-05-02T05:10:25.713Z" agent="Mozilla/5.0 (Windows NT 10.0; Win64; x64) AppleWebKit/537.36 (KHTML, like Gecko) Chrome/124.0.0.0 Safari/537.36" etag="MezNMCLH-RacudPmAaxs" version="24.0.1" type="device" pages="2">
  <diagram name="Страница — 1" id="xwXbBkTV8PpN6Dhwaltv">
    <mxGraphModel dx="1050" dy="1699" grid="1" gridSize="10" guides="1" tooltips="1" connect="1" arrows="1" fold="1" page="1" pageScale="1" pageWidth="827" pageHeight="1169" math="0" shadow="0">
      <root>
        <mxCell id="0" />
        <mxCell id="1" parent="0" />
        <mxCell id="STMC0m417w4ZfCRD8-aq-3" value="" style="edgeStyle=orthogonalEdgeStyle;rounded=0;orthogonalLoop=1;jettySize=auto;html=1;" edge="1" parent="1" source="STMC0m417w4ZfCRD8-aq-1" target="STMC0m417w4ZfCRD8-aq-2">
          <mxGeometry relative="1" as="geometry" />
        </mxCell>
        <mxCell id="STMC0m417w4ZfCRD8-aq-1" value="start&lt;div&gt;&lt;br&gt;&lt;/div&gt;" style="ellipse;whiteSpace=wrap;html=1;" vertex="1" parent="1">
          <mxGeometry x="270" y="-510" width="120" height="40" as="geometry" />
        </mxCell>
        <mxCell id="STMC0m417w4ZfCRD8-aq-5" value="" style="edgeStyle=orthogonalEdgeStyle;rounded=0;orthogonalLoop=1;jettySize=auto;html=1;" edge="1" parent="1" source="STMC0m417w4ZfCRD8-aq-2">
          <mxGeometry relative="1" as="geometry">
            <mxPoint x="330" y="-340" as="targetPoint" />
          </mxGeometry>
        </mxCell>
        <mxCell id="STMC0m417w4ZfCRD8-aq-2" value="создаем метод для разделения введенной с консоли строки в элементы массива (&lt;span style=&quot;font-family: &amp;quot;JetBrains Mono&amp;quot;; font-size: 12.25px; text-align: left;&quot;&gt;&lt;font style=&quot;&quot; color=&quot;#ff3333&quot;&gt;string[] ArrayStringConsole)&lt;/font&gt;&lt;/span&gt;" style="whiteSpace=wrap;html=1;" vertex="1" parent="1">
          <mxGeometry x="210" y="-440" width="240" height="60" as="geometry" />
        </mxCell>
        <mxCell id="STMC0m417w4ZfCRD8-aq-9" value="" style="edgeStyle=orthogonalEdgeStyle;rounded=0;orthogonalLoop=1;jettySize=auto;html=1;" edge="1" parent="1" source="STMC0m417w4ZfCRD8-aq-6" target="STMC0m417w4ZfCRD8-aq-8">
          <mxGeometry relative="1" as="geometry" />
        </mxCell>
        <mxCell id="STMC0m417w4ZfCRD8-aq-6" value="создаем метод позволяющий проверить длину элементом массива, все что подходят условию считаем количество для формирования нового массива&amp;nbsp;&lt;div&gt;&lt;font color=&quot;#ff3333&quot;&gt;(string [] ArrayCondition)&lt;/font&gt;&lt;/div&gt;" style="whiteSpace=wrap;html=1;" vertex="1" parent="1">
          <mxGeometry x="210" y="-340" width="240" height="70" as="geometry" />
        </mxCell>
        <mxCell id="STMC0m417w4ZfCRD8-aq-11" value="" style="edgeStyle=orthogonalEdgeStyle;rounded=0;orthogonalLoop=1;jettySize=auto;html=1;" edge="1" parent="1" source="STMC0m417w4ZfCRD8-aq-8" target="STMC0m417w4ZfCRD8-aq-10">
          <mxGeometry relative="1" as="geometry" />
        </mxCell>
        <mxCell id="STMC0m417w4ZfCRD8-aq-8" value="создаем новый массив из элементов удовлетворяющих условию" style="whiteSpace=wrap;html=1;" vertex="1" parent="1">
          <mxGeometry x="210" y="-250" width="240" height="60" as="geometry" />
        </mxCell>
        <mxCell id="STMC0m417w4ZfCRD8-aq-13" value="" style="edgeStyle=orthogonalEdgeStyle;rounded=0;orthogonalLoop=1;jettySize=auto;html=1;" edge="1" parent="1" source="STMC0m417w4ZfCRD8-aq-10" target="STMC0m417w4ZfCRD8-aq-12">
          <mxGeometry relative="1" as="geometry" />
        </mxCell>
        <mxCell id="STMC0m417w4ZfCRD8-aq-10" value="создаем метод для вывода массива&amp;nbsp;&lt;div&gt;(&lt;font color=&quot;#ff3333&quot;&gt;print void&lt;/font&gt;)&lt;/div&gt;" style="whiteSpace=wrap;html=1;" vertex="1" parent="1">
          <mxGeometry x="210" y="-160" width="240" height="60" as="geometry" />
        </mxCell>
        <mxCell id="STMC0m417w4ZfCRD8-aq-15" value="" style="edgeStyle=orthogonalEdgeStyle;rounded=0;orthogonalLoop=1;jettySize=auto;html=1;" edge="1" parent="1" source="STMC0m417w4ZfCRD8-aq-12" target="STMC0m417w4ZfCRD8-aq-14">
          <mxGeometry relative="1" as="geometry" />
        </mxCell>
        <mxCell id="STMC0m417w4ZfCRD8-aq-12" value="Создаем &quot;клиентский код&quot; для вызова&amp;nbsp; метода&lt;div&gt;&quot;Введите набор символов через знак (,)&quot;&lt;/div&gt;" style="shape=document;whiteSpace=wrap;html=1;boundedLbl=1;" vertex="1" parent="1">
          <mxGeometry x="210" y="-60" width="240" height="80" as="geometry" />
        </mxCell>
        <mxCell id="STMC0m417w4ZfCRD8-aq-17" value="" style="edgeStyle=orthogonalEdgeStyle;rounded=0;orthogonalLoop=1;jettySize=auto;html=1;" edge="1" parent="1" source="STMC0m417w4ZfCRD8-aq-14" target="STMC0m417w4ZfCRD8-aq-16">
          <mxGeometry relative="1" as="geometry" />
        </mxCell>
        <mxCell id="STMC0m417w4ZfCRD8-aq-14" value="введенную пользователем информацию преобразовываем в массив (через метод &lt;font color=&quot;#ff3333&quot;&gt;ArrayStringConsole)&lt;/font&gt;" style="shape=parallelogram;perimeter=parallelogramPerimeter;whiteSpace=wrap;html=1;fixedSize=1;" vertex="1" parent="1">
          <mxGeometry x="190" y="60" width="280" height="60" as="geometry" />
        </mxCell>
        <mxCell id="STMC0m417w4ZfCRD8-aq-19" value="" style="edgeStyle=orthogonalEdgeStyle;rounded=0;orthogonalLoop=1;jettySize=auto;html=1;" edge="1" parent="1" source="STMC0m417w4ZfCRD8-aq-16" target="STMC0m417w4ZfCRD8-aq-18">
          <mxGeometry relative="1" as="geometry" />
        </mxCell>
        <mxCell id="STMC0m417w4ZfCRD8-aq-16" value="вывод нового массива удовлетворяющего условиям&amp;nbsp;" style="shape=document;whiteSpace=wrap;html=1;boundedLbl=1;" vertex="1" parent="1">
          <mxGeometry x="190" y="160" width="280" height="60" as="geometry" />
        </mxCell>
        <mxCell id="STMC0m417w4ZfCRD8-aq-18" value="Finish&lt;div&gt;&lt;br&gt;&lt;/div&gt;" style="ellipse;whiteSpace=wrap;html=1;" vertex="1" parent="1">
          <mxGeometry x="290" y="260" width="80" height="40" as="geometry" />
        </mxCell>
      </root>
    </mxGraphModel>
  </diagram>
  <diagram id="duKzreOcNbCtRZ-MQA1V" name="Страница — 2">
    <mxGraphModel dx="1050" dy="530" grid="1" gridSize="10" guides="1" tooltips="1" connect="1" arrows="1" fold="1" page="1" pageScale="1" pageWidth="827" pageHeight="1169" math="0" shadow="0">
      <root>
        <mxCell id="0" />
        <mxCell id="1" parent="0" />
        <mxCell id="UTUMQMeToA3RCTwkjuac-4" value="" style="edgeStyle=orthogonalEdgeStyle;rounded=0;orthogonalLoop=1;jettySize=auto;html=1;" parent="1" source="UTUMQMeToA3RCTwkjuac-1" target="UTUMQMeToA3RCTwkjuac-3" edge="1">
          <mxGeometry relative="1" as="geometry" />
        </mxCell>
        <mxCell id="UTUMQMeToA3RCTwkjuac-1" value="start" style="ellipse;whiteSpace=wrap;html=1;" parent="1" vertex="1">
          <mxGeometry x="140" y="20" width="120" height="40" as="geometry" />
        </mxCell>
        <mxCell id="UTUMQMeToA3RCTwkjuac-6" value="" style="edgeStyle=orthogonalEdgeStyle;rounded=0;orthogonalLoop=1;jettySize=auto;html=1;" parent="1" source="UTUMQMeToA3RCTwkjuac-3" target="UTUMQMeToA3RCTwkjuac-5" edge="1">
          <mxGeometry relative="1" as="geometry" />
        </mxCell>
        <mxCell id="UTUMQMeToA3RCTwkjuac-3" value="&lt;div style=&quot;color: rgb(204, 204, 204); background-color: rgb(31, 31, 31); font-family: Consolas, &amp;quot;Courier New&amp;quot;, monospace; font-size: 14px; line-height: 19px; white-space: pre;&quot;&gt;создаем &amp;nbsp;метод для разделения введенной строки из консоли в элементы массива&lt;/div&gt;" style="whiteSpace=wrap;html=1;align=left;strokeColor=#FFFFFF;" parent="1" vertex="1">
          <mxGeometry x="115" y="130" width="170" height="60" as="geometry" />
        </mxCell>
        <mxCell id="UTUMQMeToA3RCTwkjuac-8" value="" style="edgeStyle=orthogonalEdgeStyle;rounded=0;orthogonalLoop=1;jettySize=auto;html=1;" parent="1" source="UTUMQMeToA3RCTwkjuac-5" target="UTUMQMeToA3RCTwkjuac-7" edge="1">
          <mxGeometry relative="1" as="geometry" />
        </mxCell>
        <mxCell id="UTUMQMeToA3RCTwkjuac-10" value="" style="edgeStyle=orthogonalEdgeStyle;rounded=0;orthogonalLoop=1;jettySize=auto;html=1;" parent="1" source="UTUMQMeToA3RCTwkjuac-5" target="UTUMQMeToA3RCTwkjuac-9" edge="1">
          <mxGeometry relative="1" as="geometry" />
        </mxCell>
        <mxCell id="UTUMQMeToA3RCTwkjuac-5" value="index&amp;lt;numbers.leght?" style="rhombus;whiteSpace=wrap;html=1;align=center;" parent="1" vertex="1">
          <mxGeometry x="120" y="230" width="160" height="80" as="geometry" />
        </mxCell>
        <mxCell id="UTUMQMeToA3RCTwkjuac-7" value="print (cont_maximal)" style="shape=document;whiteSpace=wrap;html=1;boundedLbl=1;" parent="1" vertex="1">
          <mxGeometry x="380" y="230" width="120" height="80" as="geometry" />
        </mxCell>
        <mxCell id="UTUMQMeToA3RCTwkjuac-12" value="yes" style="edgeStyle=orthogonalEdgeStyle;rounded=0;orthogonalLoop=1;jettySize=auto;html=1;" parent="1" source="UTUMQMeToA3RCTwkjuac-9" target="UTUMQMeToA3RCTwkjuac-11" edge="1">
          <mxGeometry relative="1" as="geometry" />
        </mxCell>
        <mxCell id="UTUMQMeToA3RCTwkjuac-14" value="no" style="edgeStyle=orthogonalEdgeStyle;rounded=0;orthogonalLoop=1;jettySize=auto;html=1;" parent="1" source="UTUMQMeToA3RCTwkjuac-9" target="UTUMQMeToA3RCTwkjuac-13" edge="1">
          <mxGeometry relative="1" as="geometry" />
        </mxCell>
        <mxCell id="UTUMQMeToA3RCTwkjuac-9" value="numbers[index]&amp;gt;maximum?" style="rhombus;whiteSpace=wrap;html=1;align=center;" parent="1" vertex="1">
          <mxGeometry x="120" y="350" width="160" height="80" as="geometry" />
        </mxCell>
        <mxCell id="UTUMQMeToA3RCTwkjuac-18" value="" style="edgeStyle=orthogonalEdgeStyle;rounded=0;orthogonalLoop=1;jettySize=auto;html=1;" parent="1" source="UTUMQMeToA3RCTwkjuac-11" target="UTUMQMeToA3RCTwkjuac-17" edge="1">
          <mxGeometry relative="1" as="geometry" />
        </mxCell>
        <mxCell id="UTUMQMeToA3RCTwkjuac-11" value="maximum=numbrers[index]&lt;br&gt;count_maximal=1" style="whiteSpace=wrap;html=1;" parent="1" vertex="1">
          <mxGeometry x="115" y="480" width="170" height="60" as="geometry" />
        </mxCell>
        <mxCell id="UTUMQMeToA3RCTwkjuac-16" value="yes" style="edgeStyle=orthogonalEdgeStyle;rounded=0;orthogonalLoop=1;jettySize=auto;html=1;" parent="1" source="UTUMQMeToA3RCTwkjuac-13" target="UTUMQMeToA3RCTwkjuac-15" edge="1">
          <mxGeometry relative="1" as="geometry" />
        </mxCell>
        <mxCell id="UTUMQMeToA3RCTwkjuac-20" value="no" style="edgeStyle=orthogonalEdgeStyle;rounded=0;orthogonalLoop=1;jettySize=auto;html=1;entryX=1;entryY=0.5;entryDx=0;entryDy=0;" parent="1" source="UTUMQMeToA3RCTwkjuac-13" target="UTUMQMeToA3RCTwkjuac-17" edge="1">
          <mxGeometry relative="1" as="geometry">
            <Array as="points">
              <mxPoint x="600" y="390" />
              <mxPoint x="600" y="650" />
            </Array>
          </mxGeometry>
        </mxCell>
        <mxCell id="UTUMQMeToA3RCTwkjuac-13" value="numbers[index]==maximum?" style="rhombus;whiteSpace=wrap;html=1;align=center;" parent="1" vertex="1">
          <mxGeometry x="360" y="350" width="160" height="80" as="geometry" />
        </mxCell>
        <mxCell id="UTUMQMeToA3RCTwkjuac-19" style="edgeStyle=orthogonalEdgeStyle;rounded=0;orthogonalLoop=1;jettySize=auto;html=1;entryX=1;entryY=0.5;entryDx=0;entryDy=0;" parent="1" source="UTUMQMeToA3RCTwkjuac-15" target="UTUMQMeToA3RCTwkjuac-17" edge="1">
          <mxGeometry relative="1" as="geometry">
            <Array as="points">
              <mxPoint x="440" y="650" />
            </Array>
          </mxGeometry>
        </mxCell>
        <mxCell id="UTUMQMeToA3RCTwkjuac-15" value="count_maximal=count_maximal+1" style="whiteSpace=wrap;html=1;" parent="1" vertex="1">
          <mxGeometry x="340" y="480" width="200" height="60" as="geometry" />
        </mxCell>
        <mxCell id="UTUMQMeToA3RCTwkjuac-21" style="edgeStyle=orthogonalEdgeStyle;rounded=0;orthogonalLoop=1;jettySize=auto;html=1;entryX=0;entryY=0.5;entryDx=0;entryDy=0;" parent="1" source="UTUMQMeToA3RCTwkjuac-17" target="UTUMQMeToA3RCTwkjuac-5" edge="1">
          <mxGeometry relative="1" as="geometry">
            <Array as="points">
              <mxPoint x="80" y="650" />
              <mxPoint x="80" y="270" />
            </Array>
          </mxGeometry>
        </mxCell>
        <mxCell id="UTUMQMeToA3RCTwkjuac-17" value="index=inedx+1" style="whiteSpace=wrap;html=1;" parent="1" vertex="1">
          <mxGeometry x="140" y="620" width="120" height="60" as="geometry" />
        </mxCell>
      </root>
    </mxGraphModel>
  </diagram>
</mxfile>
